<svg width="53" height="73" fill="none" xmlns="http://www.w3.org/2000/svg"><g clip-path="url(#PVB_Green_Dot__a)"><g clip-path="url(#PVB_Green_Dot__b)" fill="#fff"><path d="M17.38 12.024v-.86c-2.414.86-3.139 2.148-4.828 4.295C14 9.018 16.414 4.724 21 .429c4.586 4.295 7 8.589 8.448 15.03-1.69-2.147-2.655-3.435-4.827-4.294v30.059L21 44.444l-3.62-3.22v-29.2Z"/><path d="m21 55.021 4.586 4.023 13.517-11.38v-21.47c.725.43 1.69 1.074 2.414 2.147 0-4.294-5.069-11.809-9.655-15.03v32.207L21 55.02Z"/><path d="M10.138 13.312C5.31 16.532.483 24.047.483 28.342c.724-1.074 1.69-1.718 2.414-2.148v21.47l14.482 12.883v8.588L21 72.355l3.62-3.22v-9.232l.966-.859-.724-.644-14.724-12.882V13.312Z"/><path d="M25.586 59.044 21 55.021l10.862-9.503V13.312c4.586 3.22 9.655 10.735 9.655 15.03-.724-1.074-1.69-1.718-2.414-2.148v21.47l-13.517 11.38Zm0 0-.965.859v9.232L21 72.355l-3.62-3.22v-8.588L2.896 47.665v-21.47c-.725.428-1.69 1.073-2.414 2.146 0-4.294 4.827-11.809 9.655-15.03v32.207L24.862 58.4l.724.644Zm-8.207-47.02v29.2L21 44.444l3.62-3.22v-30.06c2.173.86 3.139 2.148 4.828 4.295C28 9.018 25.586 4.724 21 .429c-4.586 4.295-7 8.589-8.448 15.03 1.69-2.147 2.414-3.435 4.827-4.294v.859Z"/></g><circle cx="44" cy="63" r="9" fill="#04FF3B"/></g><defs><clipPath id="PVB_Green_Dot__a"><path fill="#fff" d="M0 0h53v73H0z"/></clipPath><clipPath id="PVB_Green_Dot__b"><path fill="#fff" d="M0 0h42v73H0z"/></clipPath></defs></svg>